<svg xmlns="http://www.w3.org/2000/svg" xmlns:svg="http://www.w3.org/2000/svg" xmlns:xlink="http://www.w3.org/1999/xlink" id="svg8" width="1500" height="1000" version="1.1" viewBox="0 0 396.875 264.583"><defs id="defs2"><linearGradient id="linearGradient1205"><stop style="stop-color:#f33;stop-opacity:1" id="stop1295" offset="0"/><stop style="stop-color:#ffe042;stop-opacity:1" id="stop1302" offset=".867"/><stop style="stop-color:#fffc42;stop-opacity:1" id="stop1297" offset="1"/></linearGradient><linearGradient id="linearGradient1277"><stop style="stop-color:#3ff;stop-opacity:1" id="stop1273" offset="0"/><stop style="stop-color:#3381ff;stop-opacity:.99607843" id="stop1275" offset="1"/></linearGradient><linearGradient id="linearGradient1174"><stop style="stop-color:#ffd199;stop-opacity:1" id="stop1251" offset="0"/><stop style="stop-color:#fffed5;stop-opacity:.99607843" id="stop1253" offset="1"/></linearGradient><linearGradient id="linearGradient1227" x1="145.521" x2="145.521" y1="191.167" y2="154.125" gradientTransform="matrix(3.7795276,0,0,3.7795276,-49.999983,-82.519636)" gradientUnits="userSpaceOnUse" xlink:href="#linearGradient1174"/><linearGradient id="linearGradient1271" x1="132.292" x2="132.292" y1="243.417" y2="21.167" gradientUnits="userSpaceOnUse" xlink:href="#linearGradient1277"/><radialGradient id="radialGradient1300" cx="132.292" cy="132.292" r="132.292" fx="132.292" fy="132.292" gradientUnits="userSpaceOnUse" xlink:href="#linearGradient1205"/></defs><metadata id="metadata5"/><g id="layer3" transform="translate(-66.145828,-2.0791015e-5)" style="display:inline"><rect style="fill:#fffc42;fill-opacity:1;stroke-width:1.5875;stroke-linecap:round;stroke-linejoin:round" id="rect864" width="396.875" height="264.583" x="66.146" y="0"/></g><g id="g1262" transform="translate(66.145832)" style="display:inline"><rect style="fill:url(#radialGradient1300);fill-opacity:1;stroke:none;stroke-width:.529167;stroke-linecap:round;stroke-linejoin:round;stroke-miterlimit:4;stroke-dasharray:none;stroke-opacity:1" id="rect1256" width="264.583" height="264.583" x="0" y="0" rx="26.667"/><path id="path1258" d="m 129.30218,23.686928 -3.5698,8.530745 -1.00511,6.137609 0.18552,2.301668 -9.21029,1.212848 -0.41651,-2.271181 -2.55954,-5.668388 -5.65598,-7.316349 -5.77536,1.547194 -1.24023,9.164299 0.61753,6.188768 0.77463,2.17506 -8.581906,3.555338 -0.990637,-2.086176 -3.939294,-4.812625 -7.357174,-5.603277 -5.17798,2.989482 1.174088,9.173083 2.198317,5.817732 1.311548,1.900661 -7.370093,5.655469 -1.49655,-1.759067 -5.050337,-3.629236 -8.556067,-3.508312 -4.228682,4.228682 3.508312,8.556067 3.629236,5.050337 1.759067,1.49655 -5.655469,7.370093 -1.900661,-1.311548 -5.817732,-2.198317 -9.173083,-1.174088 -2.989482,5.17798 5.603277,7.357174 4.812625,3.939294 2.086176,0.990637 -3.555338,8.581906 -2.17506,-0.77463 -6.188768,-0.61753 -9.164299,1.24023 -1.547194,5.77536 7.316349,5.65598 5.668388,2.55954 2.271181,0.41651 -1.212848,9.21029 -2.301668,-0.18552 -6.137609,1.00511 -8.530745,3.5698 v 5.97897 l 8.530745,3.56981 6.137609,1.0051 2.301668,-0.18552 1.212848,9.21029 -2.271181,0.41652 -5.668388,2.55953 -7.316349,5.65599 1.547194,5.77535 9.164299,1.24024 6.188768,-0.61754 2.17506,-0.77463 3.555338,8.58191 -2.086176,0.99064 -4.812625,3.93929 -5.603277,7.35717 2.989482,5.17798 9.173083,-1.17408 5.817732,-2.19832 1.900661,-1.31155 5.655469,7.37009 -1.759067,1.49655 -3.629236,5.05034 -3.508312,8.55607 4.228682,4.22868 8.556067,-3.50831 5.050337,-3.62924 1.49655,-1.75906 7.370093,5.65546 -1.311548,1.90066 -2.198317,5.81774 -1.174088,9.17308 5.17798,2.98948 7.357174,-5.60327 3.939294,-4.81263 0.990637,-2.08618 8.581906,3.55534 -0.77463,2.17506 -0.61753,6.18877 1.24023,9.1643 5.77536,1.54719 5.65598,-7.31635 2.55954,-5.66838 0.41651,-2.27118 9.21029,1.21232 -0.18552,2.30219 1.00511,6.13761 3.5698,8.53075 h 5.97897 l 3.56981,-8.53075 1.0051,-6.13761 -0.18552,-2.30219 9.21029,-1.21232 0.41652,2.27118 2.55953,5.66838 5.65599,7.31635 5.77535,-1.54719 1.24024,-9.1643 -0.61754,-6.18877 -0.77463,-2.17506 8.58191,-3.55534 0.99064,2.08618 3.93929,4.81263 7.35717,5.60327 5.17798,-2.98948 -1.17408,-9.17308 -2.19832,-5.81774 -1.31155,-1.90066 7.37009,-5.65546 1.49655,1.75906 5.05034,3.62924 8.55607,3.50831 4.22868,-4.22868 -3.50831,-8.55607 -3.62924,-5.05034 -1.75906,-1.49655 5.65546,-7.37009 1.90066,1.31155 5.81774,2.19832 9.17308,1.17408 2.98948,-5.17798 -5.60327,-7.35717 -4.81263,-3.93929 -2.08618,-0.99064 3.55534,-8.58191 2.17506,0.77463 6.18877,0.61754 9.1643,-1.24024 1.54719,-5.77535 -7.31635,-5.65599 -5.66838,-2.55953 -2.27118,-0.41652 1.21232,-9.21029 2.30219,0.18552 6.13761,-1.0051 8.53075,-3.56981 v -5.97897 l -8.53075,-3.5698 -6.13761,-1.00511 -2.30219,0.18552 -1.21232,-9.21029 2.27118,-0.41651 5.66838,-2.55954 7.31635,-5.65598 -1.54719,-5.77536 -9.1643,-1.24023 -6.18877,0.61753 -2.17506,0.77463 -3.55534,-8.581906 2.08618,-0.990637 4.81263,-3.939294 5.60327,-7.357174 -2.98948,-5.17798 -9.17308,1.174088 -5.81774,2.198317 -1.90066,1.311548 -5.65546,-7.370093 1.75906,-1.49655 3.62924,-5.050337 3.50831,-8.556067 -4.22868,-4.228682 -8.55607,3.508312 -5.05034,3.629236 -1.49655,1.759067 -7.37009,-5.655469 1.31155,-1.900661 2.19832,-5.817732 1.17408,-9.173083 -5.17798,-2.989482 -7.35717,5.603277 -3.93929,4.812625 -0.99064,2.086176 -8.58191,-3.555338 0.77463,-2.17506 0.61754,-6.188768 -1.24024,-9.164299 -5.77535,-1.547194 -5.65599,7.316349 -2.55953,5.668388 -0.41652,2.271181 -9.21029,-1.212848 0.18552,-2.301668 -1.0051,-6.137609 -3.56981,-8.530745 z m 2.98949,95.476862 a 13.127732,13.127732 0 0 1 13.12788,13.12788 13.127732,13.127732 0 0 1 -13.12788,13.12788 13.127732,13.127732 0 0 1 -13.12788,-13.12788 13.127732,13.127732 0 0 1 13.12788,-13.12788 z" style="fill:url(#linearGradient1271);fill-opacity:1;stroke:#ff3533;stroke-width:2.64583;stroke-miterlimit:4;stroke-dasharray:none;stroke-opacity:1"/></g><g id="g1225" transform="translate(66.145842,-32.416655)" style="display:inline"><path id="path1209" d="m 410,360 c 0,0 -160,10e-6 -160,280 h 60 40 c 60.00001,0 60,-60 60,-60 V 480 c 0,0 -20,100 -60,100 H 312.85742 C 329.15524,420.03554 410,420 410,420 Z m 40,0 v 60 158.73242 c 0,0 10e-6,61.26758 -20,61.26758 h 80 80 40 C 630,360.00001 450,360 450,360 Z m 100,0 c 0,0 120,40 120,280 h 80 c 4e-5,-120 -40,-220 -40,-220 l 20,-60 z m -40,95.6582 C 529.66185,478.80865 549.54729,517.01969 561.68945,580 H 510 Z" transform="matrix(0.26458333,0,0,0.26458333,0,32.416658)" style="fill:url(#linearGradient1227);fill-opacity:1;stroke:#f33;stroke-width:8;stroke-linecap:round;stroke-linejoin:round;stroke-miterlimit:4;stroke-dasharray:none;stroke-opacity:1"/></g><g id="layer2" transform="translate(66.145832)" style="display:inline"><circle style="fill:#ff4242;fill-opacity:1;stroke:none;stroke-width:2.11667;stroke-linecap:round;stroke-linejoin:round" id="path905" cx="238.125" cy="26.458" r="10.583"/><circle style="fill:#ff4242;fill-opacity:1;stroke:none;stroke-width:2.11667;stroke-linecap:round;stroke-linejoin:round" id="path905-3" cx="26.458" cy="26.458" r="10.583"/><path style="fill:#ff4242;fill-opacity:1;stroke:none;stroke-width:2.11667;stroke-linecap:round;stroke-linejoin:round" id="path922" d="M 26.458328,26.458328 V 47.624994 L 47.624994,26.458328 Z"/><circle style="fill:none;fill-opacity:1;stroke:#ff4242;stroke-width:2.11667;stroke-linecap:round;stroke-linejoin:round;stroke-opacity:1" id="path924" cx="132.292" cy="132.292" r="121.708"/><path style="fill:#ff4242;fill-opacity:1;stroke:none;stroke-width:2.11667;stroke-linecap:round;stroke-linejoin:round;stroke-opacity:1" id="path926" d="m 238.12499,26.458328 h -21.16666 l 21.16666,21.166666 z"/><path style="fill:#ff4242;fill-opacity:1;stroke:#ff4242;stroke-width:2.11667;stroke-linecap:round;stroke-linejoin:round;stroke-miterlimit:4;stroke-dasharray:none;stroke-opacity:1" id="path928" d="m 253.99999,132.29166 c 0,68.79167 -52.91666,121.70833 -121.70833,121.70833 h 105.83333 c 0,0 15.875,0 15.875,-16.20269 z"/><path style="fill:#ff4242;fill-opacity:1;stroke:#ff4242;stroke-width:2.11667;stroke-linecap:round;stroke-linejoin:round;stroke-miterlimit:4;stroke-dasharray:none;stroke-opacity:1" id="path928-6" d="m 10.583334,132.29167 c 0,68.79167 52.916657,121.70832 121.708326,121.70832 H 26.458334 c 0,0 -15.875,0 -15.875,-16.20269 z"/></g><g id="layer1" transform="translate(66.145832)" style="display:none"><image style="stroke-width:.841121;image-rendering:optimizeQuality" id="image947" width="113.242" height="201.319" x="-113.242" y="31.515" preserveAspectRatio="none" xlink:href="../app.png"/><image style="stroke-width:.64;image-rendering:optimizeQuality" id="image961" width="148.828" height="264.583" x="612.674" y="4.707" preserveAspectRatio="none" xlink:href="../zero.png"/><image style="stroke-width:.841121;image-rendering:optimizeQuality" id="image975" width="113.242" height="201.319" x="264.583" y="31.515" preserveAspectRatio="none" xlink:href="../tune.png"/></g></svg>